<svg width="27" height="25" viewBox="0 0 27 25" fill="none" xmlns="http://www.w3.org/2000/svg">
<path d="M23.66 9.084C25.184 9.084 26.3 7.968 26.3 6.384V6.096C26.3 4.512 25.184 3.396 23.72 3.396C22.856 3.396 22.148 3.756 21.716 4.38C21.776 2.04 22.544 1.32 23.72 1.32C24.488 1.32 24.92 1.752 25.16 2.34H26.048C25.808 1.332 24.992 0.516 23.72 0.516C22.064 0.516 20.9 1.68 20.9 4.776V5.544C20.9 8.004 21.98 9.084 23.66 9.084ZM21.764 6.264V5.976C21.764 4.92 22.496 4.188 23.66 4.188C24.704 4.188 25.436 4.92 25.436 6.096V6.384C25.436 7.56 24.704 8.292 23.66 8.292C22.496 8.292 21.764 7.56 21.764 6.264Z" fill="#7984C0"/>
<g clip-path="url(#clip0_4620_2831)">
<path d="M16.3834 8.325C14.1834 6.825 11.4667 7.525 10 9.24166C8.53337 7.525 5.8167 6.81666 3.6167 8.325C2.45004 9.125 1.7167 10.475 1.6667 11.9C1.55004 15.1333 4.4167 17.725 8.7917 21.7L8.87504 21.775C9.50837 22.35 10.4834 22.35 11.1167 21.7667L11.2084 21.6833C15.5834 17.7167 18.4417 15.125 18.3334 11.8917C18.2834 10.475 17.55 9.125 16.3834 8.325ZM10.0834 20.4583L10 20.5417L9.9167 20.4583C5.95004 16.8667 3.33337 14.4917 3.33337 12.0833C3.33337 10.4167 4.58337 9.16666 6.25004 9.16666C7.53337 9.16666 8.78337 9.99166 9.22504 11.1333H10.7834C11.2167 9.99166 12.4667 9.16666 13.75 9.16666C15.4167 9.16666 16.6667 10.4167 16.6667 12.0833C16.6667 14.4917 14.05 16.8667 10.0834 20.4583Z" fill="#7984C0"/>
</g>
<defs>
<clipPath id="clip0_4620_2831">
<rect width="20" height="20" fill="white" transform="translate(0 5)"/>
</clipPath>
</defs>
</svg>
