<svg width="53" height="25" viewBox="0 0 53 25" fill="none" xmlns="http://www.w3.org/2000/svg">
<rect width="53" height="25" rx="8" fill="white"/>
<path d="M13.12 17H14.436V8.74H14.464L19 17H20.82V7.2H19.504V15.264H19.476L15.052 7.2H13.12V17ZM25.7895 17.112C27.3855 17.112 28.4635 16.356 28.7995 14.9H27.4835C27.1895 15.642 26.6155 15.964 25.7195 15.964C24.5995 15.964 23.9275 15.194 23.8855 13.878H28.8695V13.374C28.8695 11.148 27.6095 9.888 25.7195 9.888C23.8155 9.888 22.5695 11.134 22.5695 13.304V13.696C22.5695 15.852 23.8295 17.112 25.7895 17.112ZM25.7195 11.036C26.8535 11.036 27.4415 11.624 27.5535 12.842H23.8995C24.0255 11.68 24.6695 11.036 25.7195 11.036ZM31.6593 17H33.3673L34.7113 11.4H34.7393L36.2793 17H37.9873L39.7933 10H38.5333L37.1333 15.6H37.1053L35.5933 10H33.8853L32.5833 15.6H32.5553L31.0573 10H29.7133L31.6593 17Z" fill="#121720"/>
</svg>
