<svg width="53" height="25" viewBox="0 0 53 25" fill="none" xmlns="http://www.w3.org/2000/svg">
<rect width="53" height="25" rx="8" fill="#EB5783"/>
<path d="M16.41 17.112C18.72 17.112 19.84 15.992 19.84 14.382C19.84 10.63 14.212 12.24 14.212 9.748C14.212 8.908 14.8 8.292 16.2 8.292C17.67 8.292 18.23 8.852 18.37 10.14H19.77C19.63 8.222 18.496 7.088 16.2 7.088C13.988 7.088 12.84 8.236 12.84 9.748C12.84 13.416 18.468 11.988 18.468 14.368C18.468 15.278 17.838 15.908 16.41 15.908C14.912 15.908 14.24 15.236 14.1 13.92H12.7C12.84 15.922 14.03 17.112 16.41 17.112ZM23.4849 17.112C24.4509 17.112 25.2629 16.706 25.8229 15.95H25.8509L26.0049 17H26.9849V12.45C26.9849 10.77 26.0889 9.888 24.1849 9.888C22.3929 9.888 21.4549 10.812 21.3849 11.96H22.6729C22.7429 11.414 23.1909 11.036 24.1849 11.036C25.2769 11.036 25.7249 11.47 25.7249 12.38V12.758H24.1149C21.9869 12.758 21.1049 13.626 21.1049 15.026C21.1049 16.314 21.9169 17.112 23.4849 17.112ZM23.6249 15.964C22.8269 15.964 22.4209 15.572 22.4209 15.012C22.4209 14.298 22.8829 13.822 24.1849 13.822H25.7249V14.074C25.7249 15.124 24.8009 15.964 23.6249 15.964ZM31.0628 17H31.6788V15.852H31.2448C30.6008 15.852 30.2788 15.516 30.2788 14.802V7.2H29.0188V14.942C29.0188 15.334 29.0328 17 31.0628 17ZM35.8793 17.112C37.4753 17.112 38.5533 16.356 38.8893 14.9H37.5733C37.2793 15.642 36.7053 15.964 35.8093 15.964C34.6893 15.964 34.0173 15.194 33.9753 13.878H38.9593V13.374C38.9593 11.148 37.6993 9.888 35.8093 9.888C33.9053 9.888 32.6593 11.134 32.6593 13.304V13.696C32.6593 15.852 33.9193 17.112 35.8793 17.112ZM35.8093 11.036C36.9433 11.036 37.5313 11.624 37.6433 12.842H33.9893C34.1153 11.68 34.7593 11.036 35.8093 11.036Z" fill="white"/>
</svg>
