<svg width="125" height="124" viewBox="0 0 125 124" fill="none" xmlns="http://www.w3.org/2000/svg">
<circle cx="62.5" cy="62" r="61.5" fill="white" stroke="#EFF0F2"/>
<circle opacity="0.1" cx="54" cy="70" r="20" fill="#7984C0"/>
<path d="M79.0342 80.3292L76.6002 53.2227C76.5337 52.4824 75.9133 51.9154 75.1702 51.9154H70.1507V49.6516C70.1507 45.4325 66.7184 42 62.4995 42C58.2808 42 54.8489 45.4325 54.8489 49.6516V51.9154H49.826C49.0828 51.9154 48.4624 52.4824 48.396 53.2227L45.9524 80.4358C45.9164 80.8375 46.0508 81.2354 46.3228 81.5329C46.5948 81.8304 46.9794 81.9998 47.3824 81.9998H77.614C77.6151 81.9998 77.6166 81.9998 77.6178 81.9998C78.4109 81.9998 79.0535 81.357 79.0535 80.5641C79.0533 80.4843 79.0468 80.4056 79.0342 80.3292ZM57.7203 49.6516C57.7203 47.0158 59.8643 44.8714 62.4997 44.8714C65.1353 44.8714 67.2795 47.0158 67.2795 49.6516V51.9154H57.7203V49.6516ZM48.9529 79.1286L51.1386 54.7869H54.8489V57.3543C54.8489 58.1472 55.4915 58.79 56.2846 58.79C57.0777 58.79 57.7203 58.1472 57.7203 57.3543V54.7869H67.2795V57.3543C67.2795 58.1472 67.9221 58.79 68.7152 58.79C69.5083 58.79 70.1509 58.1472 70.1509 57.3543V54.7869H73.8578L76.0435 79.1286H48.9529Z" fill="#7984C0"/>
</svg>
