<svg width="125" height="124" viewBox="0 0 125 124" fill="none" xmlns="http://www.w3.org/2000/svg">
<circle cx="62.5" cy="62" r="61.5" fill="white" stroke="#EFF0F2"/>
<circle opacity="0.1" cx="54" cy="70" r="20" fill="#7984C0"/>
<g clip-path="url(#clip0_4742_2613)">
<path d="M71.3409 55.6539C71.9513 56.2642 71.9513 57.2536 71.3409 57.8636L60.8588 68.3461C60.2484 68.9562 59.2593 68.9562 58.649 68.3461L53.6591 63.3559C53.0487 62.7458 53.0487 61.7565 53.6591 61.1464C54.2691 60.5361 55.2585 60.5361 55.8685 61.1464L59.7537 65.0316L69.1312 55.6539C69.7415 55.0438 70.7309 55.0438 71.3409 55.6539ZM82.5 62C82.5 73.055 73.5535 82 62.5 82C51.445 82 42.5 73.0535 42.5 62C42.5 50.945 51.4465 42 62.5 42C73.555 42 82.5 50.9465 82.5 62ZM79.375 62C79.375 52.6723 71.8265 45.125 62.5 45.125C53.1723 45.125 45.625 52.6735 45.625 62C45.625 71.3277 53.1735 78.875 62.5 78.875C71.8277 78.875 79.375 71.3265 79.375 62Z" fill="#7984C0"/>
</g>
<defs>
<clipPath id="clip0_4742_2613">
<rect width="40" height="40" fill="white" transform="translate(42.5 42)"/>
</clipPath>
</defs>
</svg>
