<svg width="125" height="124" viewBox="0 0 125 124" fill="none" xmlns="http://www.w3.org/2000/svg">
<circle cx="62.5" cy="62" r="61.5" fill="white" stroke="#EFF0F2"/>
<circle opacity="0.1" cx="54" cy="70" r="20" fill="#7984C0"/>
<g clip-path="url(#clip0_4742_3400)">
<path d="M62.5 82C57.1578 82 52.1353 79.9197 48.3578 76.1422C44.5803 72.3647 42.5 67.3422 42.5 62C42.5 56.6578 44.5804 51.6354 48.3578 47.8578C52.1352 44.0802 57.1578 42 62.5 42C67.8422 42 72.8647 44.0803 76.6422 47.8578C80.4197 51.6353 82.5 56.6578 82.5 62C82.5 67.3422 80.4196 72.3646 76.6422 76.1422C72.8648 79.9198 67.8422 82 62.5 82ZM62.5 44.5C52.8505 44.5 45 52.3505 45 62C45 71.6495 52.8505 79.5 62.5 79.5C72.1495 79.5 80 71.6495 80 62C80 52.3505 72.1495 44.5 62.5 44.5Z" fill="#7984C0"/>
<path d="M62.5 60.75C60.7769 60.75 59.375 59.3481 59.375 57.625C59.375 55.9019 60.7769 54.5 62.5 54.5C64.2231 54.5 65.625 55.9019 65.625 57.625C65.625 58.3153 66.1846 58.875 66.875 58.875C67.5654 58.875 68.125 58.3153 68.125 57.625C68.125 54.953 66.2517 52.7119 63.75 52.1417V50.75C63.75 50.0597 63.1904 49.5 62.5 49.5C61.8096 49.5 61.25 50.0597 61.25 50.75V52.1417C58.7483 52.7119 56.875 54.953 56.875 57.625C56.875 60.7266 59.3984 63.25 62.5 63.25C64.2231 63.25 65.625 64.6519 65.625 66.375C65.625 68.0981 64.2231 69.5 62.5 69.5C60.7769 69.5 59.375 68.0981 59.375 66.375C59.375 65.6847 58.8154 65.125 58.125 65.125C57.4346 65.125 56.875 65.6847 56.875 66.375C56.875 69.047 58.7483 71.2881 61.25 71.8583V73.25C61.25 73.9403 61.8096 74.5 62.5 74.5C63.1904 74.5 63.75 73.9403 63.75 73.25V71.8583C66.2517 71.2881 68.125 69.047 68.125 66.375C68.125 63.2734 65.6016 60.75 62.5 60.75Z" fill="#7984C0"/>
</g>
<defs>
<clipPath id="clip0_4742_3400">
<rect width="40" height="40" fill="white" transform="translate(42.5 42)"/>
</clipPath>
</defs>
</svg>
