<svg width="125" height="124" viewBox="0 0 125 124" fill="none" xmlns="http://www.w3.org/2000/svg">
<circle cx="62.5" cy="62" r="61.5" fill="white" stroke="#EFF0F2"/>
<circle opacity="0.1" cx="54" cy="70" r="20" fill="#7984C0"/>
<g clip-path="url(#clip0_4742_3446)">
<path d="M76.3073 50.7865H58.4588C57.9681 49.3291 56.5896 48.2761 54.9688 48.2761C53.348 48.2761 51.9695 49.3291 51.4788 50.7865H48.6928C48.0456 50.7865 47.5209 51.3112 47.5209 51.9584C47.5209 52.6056 48.0456 53.1303 48.6928 53.1303H51.4789C51.9696 54.5877 53.3481 55.6407 54.9689 55.6407C56.5897 55.6407 57.9682 54.5877 58.4589 53.1303H76.3074C76.9546 53.1303 77.4793 52.6056 77.4793 51.9584C77.4793 51.3112 76.9546 50.7865 76.3073 50.7865ZM54.9688 53.2969C54.2308 53.2969 53.6303 52.6964 53.6303 51.9584C53.6303 51.2203 54.2308 50.6199 54.9688 50.6199C55.7069 50.6199 56.3073 51.2203 56.3073 51.9584C56.3073 52.6964 55.7069 53.2969 54.9688 53.2969Z" fill="#7984C0"/>
<path d="M76.3073 60.8283H73.5212C73.0305 59.3708 71.6519 58.3179 70.0312 58.3179C68.4105 58.3179 67.032 59.3708 66.5413 60.8283H48.6928C48.0456 60.8283 47.5209 61.3529 47.5209 62.0001C47.5209 62.6473 48.0456 63.172 48.6928 63.172H66.5413C67.032 64.6294 68.4106 65.6824 70.0313 65.6824C71.652 65.6824 73.0306 64.6294 73.5213 63.172H76.3074C76.9546 63.172 77.4793 62.6473 77.4793 62.0001C77.4793 61.3529 76.9546 60.8283 76.3073 60.8283ZM70.0313 63.3387C69.2933 63.3387 68.6928 62.7382 68.6928 62.0001C68.6928 61.2621 69.2933 60.6616 70.0313 60.6616C70.7694 60.6616 71.3698 61.2621 71.3698 62.0001C71.3698 62.7382 70.7694 63.3387 70.0313 63.3387Z" fill="#7984C0"/>
<path d="M76.3073 70.87H63.4797C62.989 69.4126 61.6105 68.3596 59.9897 68.3596C58.3689 68.3596 56.9904 69.4126 56.4997 70.87H48.6928C48.0456 70.87 47.5209 71.3947 47.5209 72.0419C47.5209 72.6891 48.0456 73.2138 48.6928 73.2138H56.4997C56.9904 74.6712 58.3689 75.7241 59.9897 75.7241C61.6105 75.7241 62.989 74.6712 63.4797 73.2138H76.3074C76.9546 73.2138 77.4793 72.6891 77.4793 72.0419C77.4793 71.3947 76.9546 70.87 76.3073 70.87ZM59.9897 73.3805C59.2516 73.3805 58.6512 72.78 58.6512 72.042C58.6512 71.3039 59.2516 70.7034 59.9897 70.7034C60.7277 70.7034 61.3282 71.3038 61.3282 72.0419C61.3282 72.7799 60.7277 73.3805 59.9897 73.3805Z" fill="#7984C0"/>
</g>
<defs>
<clipPath id="clip0_4742_3446">
<rect width="40" height="40" fill="white" transform="translate(42.5 42)"/>
</clipPath>
</defs>
</svg>
