<svg width="100" height="20" viewBox="0 0 100 20" fill="none" xmlns="http://www.w3.org/2000/svg">
<g clip-path="url(#clip0_4702_3324)">
<path d="M10 14.3916L13.4583 16.4833C14.0917 16.8666 14.8667 16.3 14.7 15.5833L13.7833 11.65L16.8417 8.99997C17.4 8.51663 17.1 7.59997 16.3667 7.54164L12.3417 7.19997L10.7667 3.4833C10.4833 2.8083 9.51667 2.8083 9.23333 3.4833L7.65833 7.19164L3.63333 7.5333C2.9 7.59163 2.6 8.5083 3.15833 8.99163L6.21667 11.6416L5.3 15.575C5.13333 16.2916 5.90833 16.8583 6.54167 16.475L10 14.3916Z" fill="#7984C0"/>
</g>
<g clip-path="url(#clip1_4702_3324)">
<path d="M50 14.3916L53.4583 16.4833C54.0917 16.8666 54.8667 16.3 54.7 15.5833L53.7833 11.65L56.8417 8.99997C57.4 8.51663 57.1 7.59997 56.3667 7.54164L52.3417 7.19997L50.7667 3.4833C50.4833 2.8083 49.5167 2.8083 49.2333 3.4833L47.6583 7.19164L43.6333 7.5333C42.9 7.59163 42.6 8.5083 43.1583 8.99163L46.2167 11.6416L45.3 15.575C45.1333 16.2916 45.9083 16.8583 46.5417 16.475L50 14.3916Z" fill="#7984C0"/>
</g>
<g clip-path="url(#clip2_4702_3324)">
<path d="M30 14.3916L33.4583 16.4833C34.0917 16.8666 34.8667 16.3 34.7 15.5833L33.7833 11.65L36.8417 8.99997C37.4 8.51663 37.1 7.59997 36.3667 7.54164L32.3417 7.19997L30.7667 3.4833C30.4833 2.8083 29.5167 2.8083 29.2333 3.4833L27.6583 7.19164L23.6333 7.5333C22.9 7.59163 22.6 8.5083 23.1583 8.99163L26.2167 11.6416L25.3 15.575C25.1333 16.2916 25.9083 16.8583 26.5417 16.475L30 14.3916Z" fill="#7984C0"/>
</g>
<g clip-path="url(#clip3_4702_3324)">
<path d="M70 14.3916L73.4583 16.4833C74.0917 16.8666 74.8667 16.3 74.7 15.5833L73.7833 11.65L76.8417 8.99997C77.4 8.51663 77.1 7.59997 76.3667 7.54164L72.3417 7.19997L70.7667 3.4833C70.4833 2.8083 69.5167 2.8083 69.2333 3.4833L67.6583 7.19164L63.6333 7.5333C62.9 7.59163 62.6 8.5083 63.1583 8.99163L66.2167 11.6416L65.3 15.575C65.1333 16.2916 65.9083 16.8583 66.5417 16.475L70 14.3916Z" fill="#7984C0"/>
</g>
<g opacity="0.5" clip-path="url(#clip4_4702_3324)">
<path d="M96.375 7.53333L92.3417 7.18333L90.7667 3.475C90.4833 2.8 89.5167 2.8 89.2333 3.475L87.6583 7.19167L83.6333 7.53333C82.9 7.59167 82.6 8.50833 83.1583 8.99167L86.2167 11.6417L85.3 15.575C85.1333 16.2917 85.9083 16.8583 86.5417 16.475L90 14.3917L93.4583 16.4833C94.0917 16.8667 94.8667 16.3 94.7 15.5833L93.7833 11.6417L96.8417 8.99167C97.4 8.50833 97.1083 7.59167 96.375 7.53333ZM90 12.8333L86.8667 14.725L87.7 11.1583L84.9333 8.75833L88.5833 8.44167L90 5.08333L91.425 8.45L95.075 8.76667L92.3083 11.1667L93.1417 14.7333L90 12.8333Z" fill="#9095A9"/>
</g>
<defs>
<clipPath id="clip0_4702_3324">
<rect width="20" height="20" fill="white"/>
</clipPath>
<clipPath id="clip1_4702_3324">
<rect width="20" height="20" fill="white" transform="translate(40)"/>
</clipPath>
<clipPath id="clip2_4702_3324">
<rect width="20" height="20" fill="white" transform="translate(20)"/>
</clipPath>
<clipPath id="clip3_4702_3324">
<rect width="20" height="20" fill="white" transform="translate(60)"/>
</clipPath>
<clipPath id="clip4_4702_3324">
<rect width="20" height="20" fill="white" transform="translate(80)"/>
</clipPath>
</defs>
</svg>
