<svg width="16" height="20" viewBox="0 0 16 20" fill="none" xmlns="http://www.w3.org/2000/svg">
<path d="M7.325 1.13331L1.49167 3.72498C0.891667 3.99165 0.5 4.59165 0.5 5.24998V9.16665C0.5 13.7916 3.7 18.1166 8 19.1666C12.3 18.1166 15.5 13.7916 15.5 9.16665V5.24998C15.5 4.59165 15.1083 3.99165 14.5083 3.72498L8.675 1.13331C8.25 0.941646 7.75 0.941646 7.325 1.13331ZM5.74167 13.575L3.58333 11.4166C3.25833 11.0916 3.25833 10.5666 3.58333 10.2416C3.90833 9.91665 4.43333 9.91665 4.75833 10.2416L6.33333 11.8083L11.2333 6.90831C11.5583 6.58331 12.0833 6.58331 12.4083 6.90831C12.7333 7.23331 12.7333 7.75831 12.4083 8.08331L6.91667 13.575C6.6 13.9 6.06667 13.9 5.74167 13.575Z" fill="#7984C0"/>
</svg>
