<svg width="18" height="19" viewBox="0 0 18 19" fill="none" xmlns="http://www.w3.org/2000/svg">
<path d="M9.99999 7.49998C10.4583 7.49998 10.8333 7.12498 10.8333 6.66665V4.99998H12.5C12.9583 4.99998 13.3333 4.62498 13.3333 4.16665C13.3333 3.70831 12.9583 3.33331 12.5 3.33331H10.8333V1.66665C10.8333 1.20831 10.4583 0.833313 9.99999 0.833313C9.54166 0.833313 9.16666 1.20831 9.16666 1.66665V3.33331H7.49999C7.04166 3.33331 6.66666 3.70831 6.66666 4.16665C6.66666 4.62498 7.04166 4.99998 7.49999 4.99998H9.16666V6.66665C9.16666 7.12498 9.54166 7.49998 9.99999 7.49998ZM5.83333 15C4.91666 15 4.17499 15.75 4.17499 16.6666C4.17499 17.5833 4.91666 18.3333 5.83333 18.3333C6.74999 18.3333 7.49999 17.5833 7.49999 16.6666C7.49999 15.75 6.74999 15 5.83333 15ZM14.1667 15C13.25 15 12.5083 15.75 12.5083 16.6666C12.5083 17.5833 13.25 18.3333 14.1667 18.3333C15.0833 18.3333 15.8333 17.5833 15.8333 16.6666C15.8333 15.75 15.0833 15 14.1667 15ZM6.75 10.8333H12.9583C13.5833 10.8333 14.1333 10.4916 14.4167 9.97498L17.2333 4.86665C17.4583 4.46665 17.3083 3.95831 16.9083 3.73331C16.5083 3.51665 16 3.65831 15.7833 4.05831L12.9583 9.16665H7.10833L3.78333 2.14165C3.64999 1.84998 3.34999 1.66665 3.03333 1.66665H1.66666C1.20833 1.66665 0.833328 2.04165 0.833328 2.49998C0.833328 2.95831 1.20833 3.33331 1.66666 3.33331H2.49999L5.49999 9.65831L4.37499 11.6916C3.76666 12.8083 4.56666 14.1666 5.83333 14.1666H15C15.4583 14.1666 15.8333 13.7916 15.8333 13.3333C15.8333 12.875 15.4583 12.5 15 12.5H5.83333L6.75 10.8333Z" fill="#121720"/>
</svg>
