<svg width="20" height="20" viewBox="0 0 20 20" fill="none" xmlns="http://www.w3.org/2000/svg">
<g clip-path="url(#clip0_4672_4445)">
<path d="M9.325 1.13331L3.49167 3.72498C2.89167 3.99165 2.5 4.59165 2.5 5.24998V9.16665C2.5 13.7916 5.7 18.1166 10 19.1666C14.3 18.1166 17.5 13.7916 17.5 9.16665V5.24998C17.5 4.59165 17.1083 3.99165 16.5083 3.72498L10.675 1.13331C10.25 0.941646 9.75 0.941646 9.325 1.13331ZM7.74167 13.575L5.58333 11.4166C5.25833 11.0916 5.25833 10.5666 5.58333 10.2416C5.90833 9.91665 6.43333 9.91665 6.75833 10.2416L8.33333 11.8083L13.2333 6.90831C13.5583 6.58331 14.0833 6.58331 14.4083 6.90831C14.7333 7.23331 14.7333 7.75831 14.4083 8.08331L8.91667 13.575C8.6 13.9 8.06667 13.9 7.74167 13.575Z" fill="#7984C0"/>
</g>
<defs>
<clipPath id="clip0_4672_4445">
<rect width="20" height="20" fill="white"/>
</clipPath>
</defs>
</svg>
